<svg width="49" height="48" viewBox="0 0 49 48" fill="none" xmlns="http://www.w3.org/2000/svg">
<rect x="0.5" width="48" height="48" rx="8" fill="url(#paint0_radial_22_3)"/>
<path d="M31.4936 22.5157C31.3244 22.5157 31.1553 22.4617 31.0137 22.3561C30.7413 22.1521 30.6285 21.7994 30.7305 21.4754L31.4828 19.0624L29.581 17.5145C29.3254 17.2973 29.2318 16.9434 29.3482 16.629C29.4634 16.3146 29.7633 16.1046 30.0993 16.1046H32.5004L33.3499 13.7204C33.4663 13.4073 33.7651 13.1997 34.0999 13.1997C34.4346 13.1997 34.7334 13.4073 34.8498 13.7204L35.6993 16.1046H38.1004C38.4364 16.1046 38.7363 16.3146 38.8515 16.6302C38.9667 16.9458 38.8719 17.2997 38.6152 17.5169L36.7229 19.0588L37.5052 21.443C37.612 21.7658 37.504 22.1209 37.234 22.3285C36.9641 22.5361 36.5933 22.5505 36.3089 22.3657L34.1059 20.9306L31.94 22.3801C31.8056 22.4701 31.6484 22.5157 31.4936 22.5157ZM21.8943 18.916C21.7251 18.916 21.5559 18.862 21.4143 18.7564C21.1419 18.5524 21.0291 18.1997 21.1311 17.8757L21.8835 15.4627L19.9816 13.9148C19.726 13.6976 19.6324 13.3437 19.7488 13.0293C19.864 12.7149 20.164 12.5049 20.5 12.5049H22.901L23.7505 10.1207C23.8669 9.80756 24.1657 9.59998 24.5005 9.59998C24.8353 9.59998 25.134 9.80756 25.2504 10.1207L26.1 12.5049H28.501C28.837 12.5049 29.137 12.7149 29.2522 13.0305C29.3674 13.3461 29.2726 13.7 29.0158 13.9172L27.1235 15.4591L27.9059 17.8433C28.0127 18.1661 27.9047 18.5212 27.6347 18.7288C27.3647 18.9364 26.9939 18.9508 26.7095 18.766L24.5065 17.3309L22.3406 18.7804C22.2062 18.8704 22.0491 18.916 21.8943 18.916ZM12.2949 22.5157C12.1257 22.5157 11.9565 22.4617 11.8149 22.3561C11.5425 22.1521 11.4298 21.7994 11.5317 21.4754L12.2841 19.0624L10.3822 17.5157C10.1266 17.2985 10.033 16.9446 10.1494 16.6302C10.2646 16.3158 10.5646 16.1058 10.9006 16.1058H13.3016L14.1512 13.7216C14.2676 13.4085 14.5663 13.2009 14.9011 13.2009C15.2359 13.2009 15.5347 13.4085 15.6511 13.7216L16.5006 16.1058H18.9017C19.2376 16.1058 19.5376 16.3158 19.6528 16.6314C19.768 16.947 19.6732 17.3009 19.4164 17.5181L17.5241 19.06L18.3065 21.4442C18.4133 21.767 18.3053 22.1221 18.0353 22.3297C17.7653 22.5373 17.3946 22.5517 17.1102 22.3669L14.9071 20.9318L12.7413 22.3813C12.6069 22.4713 12.4509 22.5169 12.2961 22.5169L12.2949 22.5157ZM30.4977 26.401H25.4784L26.1744 22.4833C26.2428 22.0825 26.2092 21.8606 26.1828 21.7646C25.9572 20.9366 25.2828 20.4015 24.4645 20.4015C24.2089 20.4015 23.9509 20.4543 23.6965 20.5599C23.3918 20.6859 23.093 21.0002 22.8782 21.4226L20.2468 26.401H18.4997C16.5114 26.401 14.8999 28.0124 14.8999 30.0007V34.8003C14.8999 36.7885 16.5114 38.4 18.4997 38.4V30.0007C18.4997 29.3383 19.0372 28.8008 19.6996 28.8008C20.362 28.8008 20.8995 29.3383 20.8995 30.0007V38.4H28.5538C30.8421 38.4 32.8111 36.7849 33.2599 34.5411L34.0267 30.7062C34.4718 28.4792 32.7679 26.401 30.4965 26.401H30.4977Z" fill="white"/>
<defs>
<radialGradient id="paint0_radial_22_3" cx="0" cy="0" r="1" gradientUnits="userSpaceOnUse" gradientTransform="translate(35.3 11.2) rotate(106.356) scale(38.3521)">
<stop stop-color="#FFA18E"/>
<stop offset="1" stop-color="#FF7256"/>
</radialGradient>
</defs>
</svg>
