<svg width="49" height="48" viewBox="0 0 49 48" fill="none" xmlns="http://www.w3.org/2000/svg">
<rect x="0.5" width="48" height="48" rx="8" fill="url(#paint0_radial_18_253)"/>
<path d="M16.7 34.8C15.9044 34.8 15.1413 34.4839 14.5787 33.9213C14.0161 33.3587 13.7 32.5956 13.7 31.8V11.4C13.7 10.9226 13.5104 10.4647 13.1728 10.1272C12.8352 9.78962 12.3774 9.59998 11.9 9.59998C11.4226 9.59998 10.9648 9.78962 10.6272 10.1272C10.2896 10.4647 10.1 10.9226 10.1 11.4V31.8C10.1 33.5504 10.7954 35.2291 12.0331 36.4669C13.2708 37.7046 14.9496 38.4 16.7 38.4H37.1C37.5774 38.4 38.0352 38.2103 38.3728 37.8728C38.7104 37.5352 38.9 37.0774 38.9 36.6C38.9 36.1226 38.7104 35.6647 38.3728 35.3272C38.0352 34.9896 37.5774 34.8 37.1 34.8H16.7Z" fill="white"/>
<path d="M33.5 31.2C33.9774 31.2 34.4352 31.0104 34.7728 30.6728C35.1104 30.3353 35.3 29.8774 35.3 29.4V22.2C35.3 21.7226 35.1104 21.2648 34.7728 20.9272C34.4352 20.5897 33.9774 20.4 33.5 20.4C33.0226 20.4 32.5648 20.5897 32.2272 20.9272C31.8897 21.2648 31.7 21.7226 31.7 22.2V29.4C31.7 29.8774 31.8897 30.3353 32.2272 30.6728C32.5648 31.0104 33.0226 31.2 33.5 31.2Z" fill="white"/>
<path d="M19.1 31.2C19.5774 31.2 20.0352 31.0104 20.3728 30.6728C20.7103 30.3353 20.9 29.8774 20.9 29.4V22.2C20.9 21.7226 20.7103 21.2648 20.3728 20.9272C20.0352 20.5897 19.5774 20.4 19.1 20.4C18.6226 20.4 18.1648 20.5897 17.8272 20.9272C17.4896 21.2648 17.3 21.7226 17.3 22.2V29.4C17.3 29.8774 17.4896 30.3353 17.8272 30.6728C18.1648 31.0104 18.6226 31.2 19.1 31.2Z" fill="white"/>
<path d="M26.3 31.2C26.7774 31.2 27.2352 31.0104 27.5728 30.6728C27.9104 30.3352 28.1 29.8774 28.1 29.4V16.2C28.1 15.7226 27.9104 15.2648 27.5728 14.9272C27.2352 14.5897 26.7774 14.4 26.3 14.4C25.8226 14.4 25.3648 14.5897 25.0272 14.9272C24.6896 15.2648 24.5 15.7226 24.5 16.2V29.4C24.5 29.8774 24.6896 30.3352 25.0272 30.6728C25.3648 31.0104 25.8226 31.2 26.3 31.2Z" fill="white"/>
<defs>
<radialGradient id="paint0_radial_18_253" cx="0" cy="0" r="1" gradientUnits="userSpaceOnUse" gradientTransform="translate(35.3 11.2) rotate(106.356) scale(38.3521)">
<stop stop-color="#FFA18E"/>
<stop offset="1" stop-color="#FF7256"/>
</radialGradient>
</defs>
</svg>
