<svg width="49" height="48" viewBox="0 0 49 48" fill="none" xmlns="http://www.w3.org/2000/svg">
<rect x="0.5" width="48" height="48" rx="8" fill="url(#paint0_radial_22_75)"/>
<path fill-rule="evenodd" clip-rule="evenodd" d="M18.6792 9.59998H35.562L35.8848 9.77377C36.0648 9.86687 36.282 10.0469 36.3813 10.1896C36.4806 10.3262 36.5924 10.5372 36.6296 10.6551C36.6855 10.8165 36.7041 14.3234 36.7103 37.1896L36.5427 37.531C36.4558 37.7172 36.2882 37.9469 36.1703 38.0338C36.0586 38.1207 35.8661 38.2386 35.7482 38.2945C35.5496 38.3938 34.7675 38.4 14.4586 38.4L14.1358 38.2262C13.962 38.1331 13.7572 37.9717 13.6765 37.8724C13.5958 37.7731 13.4841 37.5745 13.422 37.4379C13.3165 37.202 13.3103 36.6683 13.2917 26.6069C13.2855 20.7848 13.2917 15.962 13.3413 15.7448H15.8861C18.3503 15.7448 18.4372 15.7386 18.5551 15.6207C18.673 15.5027 18.6792 15.4158 18.6792 12.5483V9.59998ZM32.7813 13.9014C32.6634 14.0131 32.5144 14.2117 32.4399 14.3483C32.3344 14.5407 32.3034 14.7083 32.3034 15.062C32.3034 15.3972 32.3406 15.5896 32.4213 15.7448C32.4834 15.8627 32.6199 16.0551 32.7317 16.1669C32.8372 16.2848 33.0358 16.4338 33.1723 16.5083C33.3648 16.6138 33.5323 16.6448 33.8861 16.6448C34.2399 16.6448 34.4075 16.6138 34.5999 16.5083C34.7365 16.4338 34.9351 16.2848 35.0406 16.1669C35.1523 16.0551 35.2889 15.8627 35.351 15.7448C35.4317 15.5896 35.4689 15.3972 35.4689 15.062C35.4689 14.7083 35.4379 14.5407 35.3323 14.3483C35.2579 14.2117 35.1089 14.0131 34.991 13.9014C34.8792 13.7958 34.662 13.6469 34.5068 13.5786C34.333 13.4979 34.0972 13.4483 33.8861 13.4483C33.6751 13.4483 33.4392 13.4979 33.2655 13.5786C33.1103 13.6469 32.893 13.7958 32.7813 13.9014ZM24.253 14.8324C24.2655 19.9407 24.2841 20.5614 24.3523 20.6979C24.3958 20.791 24.4827 20.8841 24.5386 20.9151C24.5944 20.94 25.9537 20.9586 27.5551 20.9586C30.3917 20.9586 30.4786 20.9524 30.5965 20.8345C30.6648 20.7662 30.7392 20.6358 30.7579 20.5427C30.7827 20.4434 30.7703 20.1331 30.7268 19.8414C30.6896 19.5496 30.6151 19.1462 30.5592 18.9414C30.5096 18.7365 30.3792 18.3579 30.2675 18.1034C30.162 17.8489 29.9448 17.4393 29.7896 17.2034C29.6282 16.9676 29.3489 16.6014 29.1627 16.4027C28.9765 16.1979 28.6041 15.8689 28.331 15.6641C28.0579 15.4655 27.611 15.1924 27.3379 15.062C27.0648 14.9317 26.6303 14.7641 26.3758 14.6896C26.0841 14.6089 25.6496 14.5407 25.2275 14.522L24.5386 14.4848L24.253 14.8324ZM20.9758 16.651C20.6841 16.7441 20.2123 16.9365 19.9206 17.0855C19.6289 17.2345 19.1696 17.5386 18.8965 17.7558C18.6234 17.9731 18.2261 18.3703 18.0089 18.6434C17.7917 18.9103 17.4813 19.4131 17.3137 19.7545C17.1461 20.0958 16.9475 20.611 16.8668 20.9027C16.7427 21.3496 16.7241 21.5731 16.7303 22.4234C16.7365 23.2365 16.7613 23.5034 16.8668 23.9131C16.9413 24.1862 17.1399 24.6889 17.3137 25.0303C17.4813 25.3717 17.7668 25.8434 17.953 26.0855C18.133 26.3214 18.493 26.7 18.7537 26.9234C19.0082 27.1407 19.4551 27.4572 19.7406 27.6186C20.0261 27.7862 20.5227 27.9972 20.8392 28.1027C21.1558 28.202 21.6958 28.32 22.0496 28.3634C22.5275 28.4193 22.8317 28.4193 23.3034 28.3634C23.6448 28.3262 24.1599 28.2207 24.4517 28.1276C24.7434 28.0345 25.1468 27.8793 25.3517 27.7738C25.5565 27.6745 25.8792 27.482 26.0655 27.3517C26.2517 27.2276 26.5434 26.9979 26.7172 26.8489C26.8848 26.7 27.1889 26.371 27.3875 26.1165C27.5923 25.8558 27.8903 25.3717 28.0579 25.0303C28.2255 24.6889 28.4241 24.1862 28.4923 23.9131C28.5606 23.64 28.6351 23.1496 28.6537 22.8269C28.6848 22.2931 28.6786 22.2186 28.5606 22.082L28.4365 21.9269L23.1482 21.8958C23.1544 16.9055 23.1482 16.7007 23.0427 16.5703C22.9682 16.471 22.8503 16.4151 22.6827 16.4027C22.5461 16.3903 22.2234 16.4027 21.9689 16.4338C21.7144 16.4648 21.2675 16.5641 20.9758 16.651ZM33.0979 19.6117C33.0048 19.6676 32.8372 19.8041 32.7317 19.9158C32.6261 20.0338 32.4834 20.22 32.4213 20.3441C32.3406 20.4993 32.3096 20.6917 32.3096 21.0269C32.3096 21.3558 32.3406 21.5545 32.4213 21.7096C32.4834 21.8276 32.6261 22.02 32.7317 22.1317C32.8372 22.2434 33.0358 22.3986 33.1723 22.4731C33.3648 22.5724 33.5323 22.6034 33.8861 22.6034C34.2399 22.6034 34.4137 22.5724 34.5999 22.4731C34.7365 22.4048 34.9475 22.2372 35.0717 22.1007C35.1896 21.9703 35.3448 21.722 35.4068 21.5545C35.4875 21.3248 35.5123 21.151 35.4875 20.9027C35.4689 20.7103 35.4068 20.462 35.3448 20.3441C35.2889 20.22 35.1523 20.0338 35.0468 19.9158C34.9351 19.8041 34.7365 19.6551 34.5999 19.5807C34.4572 19.5062 34.1965 19.4441 33.9792 19.4379C33.7744 19.4255 33.5323 19.4379 33.4392 19.4627C33.3461 19.4938 33.1972 19.562 33.0979 19.6117ZM33.0979 25.5703C33.0048 25.6262 32.8372 25.7627 32.7317 25.8745C32.6261 25.9924 32.4834 26.1786 32.4213 26.3027C32.3406 26.4579 32.3096 26.6503 32.3096 26.9855C32.3096 27.3145 32.3406 27.5131 32.4213 27.6683C32.4834 27.7862 32.6261 27.9786 32.7317 28.0903C32.8372 28.202 33.0358 28.3572 33.1723 28.4317C33.3648 28.531 33.5323 28.562 33.8861 28.562C34.2399 28.562 34.4137 28.531 34.5999 28.4317C34.7365 28.3634 34.9475 28.1958 35.0717 28.0593C35.1896 27.9289 35.3448 27.6807 35.4068 27.5131C35.4875 27.2834 35.5123 27.1096 35.4875 26.8614C35.4689 26.6689 35.4068 26.4207 35.3448 26.3027C35.2889 26.1786 35.1523 25.9924 35.0468 25.8745C34.9351 25.7627 34.7365 25.6138 34.5999 25.5393C34.4572 25.4648 34.1965 25.4027 33.9792 25.3965C33.7744 25.3841 33.5323 25.3965 33.4392 25.4214C33.3461 25.4524 33.1972 25.5207 33.0979 25.5703ZM16.7675 30.7034C16.7303 30.7717 16.693 30.902 16.693 30.9889C16.693 31.0696 16.7613 31.2124 16.8482 31.2993L17.0034 31.4545H30.4227C30.702 31.1627 30.7827 31.0262 30.7827 30.9579C30.7827 30.8896 30.702 30.7469 30.5965 30.6476L30.4103 30.4614C20.0696 30.4676 17.0406 30.4924 16.9723 30.5234C16.8979 30.5545 16.811 30.6351 16.7675 30.7034ZM33.0979 31.5289C33.0048 31.5848 32.8372 31.7214 32.7317 31.8331C32.6261 31.951 32.4834 32.1372 32.4213 32.2614C32.3406 32.4165 32.3096 32.6089 32.3096 32.9441C32.3096 33.2979 32.3406 33.4655 32.4399 33.6579C32.5144 33.7945 32.6634 33.9931 32.7813 34.1048C32.893 34.2103 33.1103 34.3593 33.2655 34.4276C33.4392 34.502 33.6813 34.5517 33.8861 34.5517C34.1158 34.5517 34.333 34.5083 34.5379 34.4089C34.7117 34.3283 34.9475 34.1545 35.0717 34.0241C35.1896 33.8876 35.3448 33.6393 35.4068 33.4717C35.4875 33.242 35.5123 33.0683 35.4875 32.82C35.4689 32.6276 35.4068 32.3793 35.3448 32.2614C35.2889 32.1372 35.1523 31.951 35.0468 31.8331C34.9351 31.7214 34.7365 31.5724 34.5999 31.4979C34.4572 31.4234 34.1965 31.3614 33.9792 31.3551C33.7744 31.3427 33.5323 31.3551 33.4392 31.38C33.3461 31.411 33.1972 31.4793 33.0979 31.5289ZM22.8875 33.8317C22.8627 33.8876 22.8379 34.0117 22.8379 34.1048C22.8379 34.2041 22.8937 34.3345 22.9744 34.4151L23.1172 34.5517C30.2117 34.5579 30.4537 34.5517 30.5841 34.4524C30.6586 34.3903 30.7392 34.2538 30.7579 34.1545C30.7889 34.0055 30.7641 33.9248 30.6399 33.782L30.4848 33.5958C24.0668 33.571 23.2661 33.5834 23.1172 33.6455C23.0179 33.6889 22.9123 33.7758 22.8875 33.8317ZM17.6923 10.5372C17.7234 10.5372 17.7482 11.4434 17.7482 14.82H15.8861C14.862 14.82 14.0117 14.7951 13.9992 14.7703C13.9868 14.7455 14.7999 13.7834 15.8055 12.6289C16.811 11.4807 17.6613 10.5372 17.6923 10.5372Z" fill="white"/>
<defs>
<radialGradient id="paint0_radial_22_75" cx="0" cy="0" r="1" gradientUnits="userSpaceOnUse" gradientTransform="translate(35.3 11.2) rotate(106.356) scale(38.3521)">
<stop stop-color="#FFA18E"/>
<stop offset="1" stop-color="#FF7256"/>
</radialGradient>
</defs>
</svg>
