<svg width="125" height="36" viewBox="0 0 125 36" fill="none" xmlns="http://www.w3.org/2000/svg">
<g clip-path="url(#clip0_10_180)">
<path d="M13.5 0L18.4091 4.8L0 22.8V13.2L13.5 0Z" fill="#7491FF"/>
<path d="M2.61744 25.3593L13.5 36L27 22.8001V13.2L18.409 4.80005L0 22.8001L0.00375192 22.8038L18.409 4.80005V18.6L10.125 26.7001V18.1192L2.61744 25.3593Z" fill="#FF7357"/>
</g>
<path d="M48.737 28.39C46.865 28.39 45.2617 27.9827 43.927 27.168C42.5923 26.3447 41.5653 25.2007 40.846 23.736C40.1353 22.2713 39.78 20.5727 39.78 18.64C39.78 16.7073 40.1353 15.0087 40.846 13.544C41.5653 12.0793 42.5923 10.9397 43.927 10.125C45.2617 9.30167 46.865 8.89 48.737 8.89C50.609 8.89 52.2123 9.30167 53.547 10.125C54.8903 10.9397 55.9173 12.0793 56.628 13.544C57.3473 15.0087 57.707 16.7073 57.707 18.64C57.707 20.5727 57.3473 22.2713 56.628 23.736C55.9173 25.2007 54.8903 26.3447 53.547 27.168C52.2123 27.9827 50.609 28.39 48.737 28.39ZM48.737 25.439C49.9937 25.4477 51.038 25.1703 51.87 24.607C52.7107 24.0437 53.339 23.2507 53.755 22.228C54.1797 21.2053 54.392 20.0093 54.392 18.64C54.392 17.2707 54.1797 16.0833 53.755 15.078C53.339 14.064 52.7107 13.2753 51.87 12.712C51.038 12.1487 49.9937 11.8583 48.737 11.841C47.4803 11.8323 46.436 12.1097 45.604 12.673C44.772 13.2363 44.1437 14.0293 43.719 15.052C43.303 16.0747 43.095 17.2707 43.095 18.64C43.095 20.0093 43.303 21.201 43.719 22.215C44.135 23.2203 44.759 24.0047 45.591 24.568C46.4317 25.1313 47.4803 25.4217 48.737 25.439ZM67.0416 28.39C65.6723 28.39 64.5239 28.065 63.5966 27.415C62.6693 26.765 61.9716 25.881 61.5036 24.763C61.0356 23.6363 60.8016 22.3753 60.8016 20.98C60.8016 19.5673 61.0356 18.302 61.5036 17.184C61.9716 16.066 62.6563 15.1863 63.5576 14.545C64.4676 13.895 65.5899 13.57 66.9246 13.57C68.2506 13.57 69.3989 13.895 70.3696 14.545C71.3489 15.1863 72.1073 16.066 72.6446 17.184C73.1819 18.2933 73.4506 19.5587 73.4506 20.98C73.4506 22.384 73.1863 23.645 72.6576 24.763C72.1289 25.881 71.3836 26.765 70.4216 27.415C69.4596 28.065 68.3329 28.39 67.0416 28.39ZM60.2686 34.24V13.96H63.0376V23.814H63.4276V34.24H60.2686ZM66.5606 25.582C67.3753 25.582 68.0469 25.3783 68.5756 24.971C69.1043 24.5637 69.4943 24.0133 69.7456 23.32C70.0056 22.618 70.1356 21.838 70.1356 20.98C70.1356 20.1307 70.0056 19.3593 69.7456 18.666C69.4856 17.964 69.0826 17.4093 68.5366 17.002C67.9906 16.586 67.2973 16.378 66.4566 16.378C65.6593 16.378 65.0093 16.573 64.5066 16.963C64.0039 17.3443 63.6313 17.8817 63.3886 18.575C63.1546 19.2597 63.0376 20.0613 63.0376 20.98C63.0376 21.89 63.1546 22.6917 63.3886 23.385C63.6313 24.0783 64.0083 24.62 64.5196 25.01C65.0396 25.3913 65.7199 25.582 66.5606 25.582ZM76.5761 11.828V8.955H79.7091V11.828H76.5761ZM76.5761 28V13.96H79.7091V28H76.5761ZM83.6032 28V13.96H86.3722V17.379L86.0342 16.937C86.2075 16.469 86.4372 16.0443 86.7232 15.663C87.0179 15.273 87.3689 14.9523 87.7762 14.701C88.1229 14.467 88.5042 14.285 88.9202 14.155C89.3449 14.0163 89.7782 13.934 90.2202 13.908C90.6622 13.8733 91.0912 13.8907 91.5072 13.96V16.885C91.0912 16.7637 90.6102 16.7247 90.0642 16.768C89.5269 16.8113 89.0415 16.963 88.6082 17.223C88.1749 17.457 87.8195 17.756 87.5422 18.12C87.2735 18.484 87.0742 18.9 86.9442 19.368C86.8142 19.8273 86.7492 20.3257 86.7492 20.863V28H83.6032ZM99.9351 28.39C98.5311 28.39 97.3047 28.0737 96.2561 27.441C95.2074 26.8083 94.3927 25.9373 93.8121 24.828C93.2401 23.71 92.9541 22.4273 92.9541 20.98C92.9541 19.5067 93.2487 18.2153 93.8381 17.106C94.4274 15.9967 95.2464 15.13 96.2951 14.506C97.3437 13.882 98.5571 13.57 99.9351 13.57C101.348 13.57 102.578 13.8863 103.627 14.519C104.676 15.1517 105.49 16.027 106.071 17.145C106.652 18.2543 106.942 19.5327 106.942 20.98C106.942 22.436 106.647 23.723 106.058 24.841C105.477 25.9503 104.663 26.8213 103.614 27.454C102.565 28.078 101.339 28.39 99.9351 28.39ZM99.9351 25.452C101.183 25.452 102.11 25.036 102.717 24.204C103.324 23.372 103.627 22.2973 103.627 20.98C103.627 19.6193 103.319 18.536 102.704 17.73C102.089 16.9153 101.166 16.508 99.9351 16.508C99.0944 16.508 98.4011 16.6987 97.8551 17.08C97.3177 17.4527 96.9191 17.977 96.6591 18.653C96.3991 19.3203 96.2691 20.096 96.2691 20.98C96.2691 22.3407 96.5767 23.4283 97.1921 24.243C97.8161 25.049 98.7304 25.452 99.9351 25.452ZM119.517 28V21.24C119.517 20.798 119.487 20.3083 119.426 19.771C119.366 19.2337 119.223 18.718 118.997 18.224C118.781 17.7213 118.451 17.3097 118.009 16.989C117.576 16.6683 116.987 16.508 116.241 16.508C115.843 16.508 115.448 16.573 115.058 16.703C114.668 16.833 114.313 17.0583 113.992 17.379C113.68 17.691 113.429 18.1243 113.238 18.679C113.048 19.225 112.952 19.927 112.952 20.785L111.093 19.992C111.093 18.796 111.323 17.7127 111.782 16.742C112.25 15.7713 112.935 15 113.836 14.428C114.738 13.8473 115.847 13.557 117.164 13.557C118.204 13.557 119.062 13.7303 119.738 14.077C120.414 14.4237 120.952 14.8657 121.35 15.403C121.749 15.9403 122.044 16.5123 122.234 17.119C122.425 17.7257 122.546 18.302 122.598 18.848C122.659 19.3853 122.689 19.823 122.689 20.161V28H119.517ZM109.78 28V13.96H112.575V18.315H112.952V28H109.78Z" fill="#191919"/>
<defs>
<clipPath id="clip0_10_180">
<rect width="27" height="36" fill="white"/>
</clipPath>
</defs>
</svg>
