<svg width="420" height="242" viewBox="0 0 420 242" fill="none" xmlns="http://www.w3.org/2000/svg">
<g filter="url(#filter0_d_13_51)">
<rect x="13.8428" y="107.444" width="374" height="120" rx="28" transform="rotate(-15 13.8428 107.444)" fill="white"/>
<path d="M76.0908 134.246L72.9228 122.423L76.6257 121.431C76.7352 121.401 76.9384 121.35 77.2355 121.276C77.538 121.201 77.8312 121.146 78.1152 121.111C79.071 120.978 79.937 121.101 80.7131 121.48C81.4947 121.857 82.1599 122.424 82.7087 123.18C83.2561 123.931 83.6639 124.807 83.9323 125.809C84.2022 126.816 84.2886 127.784 84.1915 128.714C84.0929 129.638 83.7995 130.459 83.3113 131.176C82.827 131.887 82.1378 132.423 81.2435 132.786C80.9801 132.898 80.6986 132.997 80.399 133.083C80.1049 133.167 79.9031 133.224 79.7937 133.254L76.0908 134.246ZM77.41 132.141L79.3559 131.62C79.542 131.57 79.7622 131.505 80.0165 131.425C80.2708 131.345 80.4921 131.263 80.6804 131.177C81.2517 130.901 81.6692 130.51 81.9328 130.005C82.2005 129.494 82.342 128.916 82.3573 128.272C82.3726 127.629 82.29 126.971 82.1096 126.297C81.9234 125.602 81.6607 124.983 81.3217 124.44C80.9812 123.892 80.5686 123.469 80.0838 123.171C79.6031 122.865 79.0525 122.737 78.432 122.786C78.2247 122.8 77.9889 122.84 77.7247 122.905C77.4645 122.963 77.2441 123.016 77.0635 123.065L75.1177 123.586L77.41 132.141ZM84.827 120.844L84.3804 119.177L86.0964 118.717L86.543 120.384L84.827 120.844ZM87.5924 131.164L85.2164 122.297L86.9324 121.837L89.3083 130.704L87.5924 131.164ZM96.5495 133.252C96.0733 133.38 95.591 133.43 95.1025 133.402C94.6196 133.373 94.1558 133.263 93.7114 133.071C93.2684 132.884 92.87 132.613 92.5162 132.256L93.8852 131.027C94.178 131.353 94.5258 131.556 94.9285 131.636C95.3312 131.716 95.7296 131.703 96.1237 131.597C96.6108 131.467 97.0034 131.268 97.3013 131C97.6006 130.738 97.7917 130.411 97.8745 130.019C97.9627 129.626 97.9359 129.176 97.794 128.668L97.1296 126.189L97.3349 126.134L95.5639 119.524L97.0828 119.117L99.5226 128.223C99.5856 128.458 99.6376 128.685 99.6783 128.902C99.7191 129.12 99.7462 129.342 99.7596 129.567C99.7936 130.197 99.6848 130.755 99.4331 131.238C99.1869 131.721 98.8158 132.131 98.3198 132.47C97.8293 132.806 97.2391 133.067 96.5495 133.252ZM95.3621 129.346C94.5356 129.568 93.7663 129.554 93.0542 129.305C92.3476 129.054 91.7355 128.62 91.2179 128.001C90.7043 127.376 90.3287 126.621 90.0911 125.734C89.852 124.842 89.8028 124.001 89.9435 123.213C90.0827 122.419 90.3991 121.738 90.8927 121.172C91.3902 120.599 92.055 120.2 92.887 119.978C93.7245 119.753 94.4828 119.77 95.1621 120.028C95.8453 120.279 96.4266 120.719 96.9059 121.347C97.3907 121.974 97.7519 122.731 97.9894 123.617C98.227 124.504 98.2927 125.34 98.1863 126.125C98.0799 126.911 97.7951 127.588 97.3318 128.158C96.8671 128.723 96.2105 129.119 95.3621 129.346ZM95.1844 127.731C95.7482 127.58 96.1721 127.322 96.456 126.959C96.7399 126.595 96.9009 126.156 96.939 125.641C96.977 125.127 96.9139 124.563 96.7497 123.95C96.5854 123.337 96.3554 122.817 96.0596 122.392C95.7692 121.965 95.4137 121.668 94.993 121.499C94.5778 121.328 94.1019 121.315 93.5655 121.459C92.9963 121.611 92.5657 121.876 92.2738 122.254C91.9818 122.631 91.8086 123.08 91.7541 123.599C91.7051 124.116 91.7583 124.665 91.9138 125.245C92.0707 125.831 92.3005 126.339 92.6033 126.768C92.9101 127.19 93.2787 127.493 93.7093 127.677C94.1454 127.859 94.6371 127.877 95.1844 127.731ZM99.1631 117.002L98.7165 115.336L100.432 114.876L100.879 116.543L99.1631 117.002ZM101.928 127.323L99.5525 118.456L101.268 117.996L103.644 126.863L101.928 127.323ZM111.184 124.843C110.655 125.102 110.12 125.295 109.579 125.422C109.038 125.55 108.532 125.574 108.059 125.495C107.586 125.417 107.188 125.201 106.864 124.847C106.575 124.532 106.371 124.188 106.253 123.814C106.14 123.434 106.018 123.003 105.889 122.521L103.788 114.681L105.512 114.219L107.591 121.977C107.687 122.333 107.772 122.642 107.848 122.903C107.93 123.163 108.046 123.369 108.199 123.522C108.487 123.808 108.851 123.919 109.291 123.854C109.735 123.782 110.236 123.627 110.795 123.389L111.184 124.843ZM103.118 118.978L102.749 117.599L108.808 115.976L109.178 117.355L103.118 118.978ZM115.624 123.917C114.967 124.093 114.384 124.12 113.877 123.998C113.367 123.871 112.944 123.638 112.607 123.3C112.274 122.955 112.043 122.542 111.914 122.06C111.794 121.611 111.768 121.196 111.835 120.814C111.903 120.432 112.062 120.082 112.31 119.763C112.558 119.438 112.889 119.141 113.304 118.872C113.667 118.651 114.086 118.43 114.561 118.209C115.035 117.988 115.536 117.766 116.063 117.543C116.595 117.318 117.122 117.095 117.643 116.873L117.112 117.385C116.936 116.687 116.651 116.212 116.255 115.96C115.863 115.701 115.297 115.671 114.558 115.869C114.093 115.994 113.696 116.218 113.366 116.541C113.034 116.858 112.859 117.287 112.839 117.826L111.106 117.762C111.121 116.943 111.375 116.226 111.867 115.613C112.366 114.999 113.127 114.554 114.15 114.28C114.944 114.067 115.67 114.019 116.329 114.136C116.992 114.246 117.539 114.557 117.97 115.069C118.19 115.321 118.359 115.604 118.479 115.919C118.598 116.233 118.708 116.576 118.807 116.948L120.27 122.408L118.751 122.815L118.208 120.787L118.574 120.971C118.389 121.748 118.057 122.379 117.577 122.866C117.101 123.345 116.45 123.696 115.624 123.917ZM115.551 122.432C116.038 122.301 116.434 122.104 116.739 121.841C117.043 121.572 117.265 121.274 117.407 120.949C117.548 120.624 117.613 120.307 117.601 119.999C117.624 119.712 117.596 119.402 117.519 119.071C117.448 118.738 117.386 118.473 117.333 118.276L117.946 118.332C117.426 118.559 116.953 118.765 116.528 118.949C116.102 119.134 115.717 119.307 115.374 119.47C115.034 119.625 114.736 119.784 114.481 119.947C114.267 120.092 114.083 120.247 113.928 120.412C113.778 120.575 113.67 120.753 113.605 120.947C113.545 121.139 113.546 121.353 113.609 121.588C113.671 121.818 113.785 122.016 113.953 122.182C114.12 122.343 114.336 122.449 114.602 122.501C114.868 122.553 115.185 122.53 115.551 122.432ZM122.567 121.793L119.333 109.724L121.049 109.264L124.283 121.333L122.567 121.793ZM130.2 119.747L127.032 107.925L128.748 107.465L131.916 119.288L130.2 119.747ZM139.455 117.267C138.926 117.527 138.391 117.72 137.851 117.847C137.31 117.974 136.803 117.999 136.33 117.92C135.857 117.841 135.459 117.625 135.136 117.272C134.846 116.957 134.642 116.612 134.525 116.239C134.411 115.859 134.29 115.428 134.161 114.946L132.06 107.105L133.784 106.643L135.863 114.402C135.958 114.758 136.044 115.066 136.12 115.328C136.201 115.588 136.318 115.794 136.47 115.947C136.758 116.233 137.122 116.344 137.562 116.279C138.006 116.207 138.508 116.052 139.066 115.814L139.455 117.267ZM131.39 111.403L131.02 110.024L137.079 108.4L137.449 109.78L131.39 111.403ZM144.923 116.066C144.041 116.303 143.216 116.319 142.445 116.114C141.679 115.903 141.017 115.503 140.46 114.913C139.907 114.316 139.508 113.56 139.263 112.646C139.003 111.677 138.959 110.789 139.13 109.98C139.306 109.171 139.667 108.484 140.214 107.921C140.762 107.358 141.468 106.96 142.333 106.729C143.236 106.487 144.061 106.491 144.809 106.743C145.555 106.989 146.188 107.456 146.707 108.144C147.231 108.83 147.603 109.714 147.822 110.793L146.106 111.253L145.938 110.629C145.652 109.603 145.251 108.895 144.736 108.505C144.226 108.113 143.582 108.022 142.805 108.23C141.946 108.46 141.373 108.904 141.085 109.562C140.798 110.22 140.792 111.06 141.066 112.084C141.327 113.058 141.746 113.756 142.322 114.176C142.896 114.591 143.592 114.69 144.407 114.471C144.944 114.327 145.374 114.083 145.698 113.738C146.026 113.386 146.239 112.954 146.336 112.441L148.162 112.523C148.03 113.409 147.672 114.165 147.089 114.791C146.504 115.411 145.782 115.836 144.923 116.066ZM140.637 112.718L140.279 111.38L146.609 109.683L146.968 111.022L140.637 112.718ZM161.105 111.466L159.633 105.939C159.461 105.298 159.164 104.844 158.74 104.576C158.315 104.303 157.834 104.238 157.298 104.382C156.969 104.47 156.689 104.627 156.456 104.854C156.227 105.073 156.069 105.357 155.98 105.703C155.895 106.043 155.912 106.437 156.033 106.886L155.091 106.689C154.913 106.068 154.898 105.486 155.045 104.941C155.198 104.396 155.478 103.931 155.886 103.546C156.291 103.156 156.79 102.881 157.381 102.723C158.339 102.466 159.158 102.555 159.837 102.989C160.517 103.423 160.984 104.116 161.239 105.068L162.821 111.007L161.105 111.466ZM150.473 114.315L148.097 105.448L149.624 105.039L150.311 107.6L150.508 107.548L152.197 113.853L150.473 114.315ZM155.793 112.89L154.33 107.395C154.157 106.749 153.857 106.287 153.43 106.008C153.009 105.728 152.525 105.661 151.977 105.808C151.435 105.953 151.047 106.256 150.813 106.718C150.585 107.178 150.551 107.709 150.712 108.311L149.75 108.006C149.595 107.426 149.596 106.871 149.753 106.342C149.911 105.813 150.192 105.353 150.598 104.963C151.004 104.572 151.508 104.297 152.11 104.135C152.739 103.967 153.312 103.957 153.827 104.106C154.341 104.25 154.776 104.53 155.134 104.944C155.497 105.357 155.763 105.879 155.931 106.508L157.509 112.43L155.793 112.89Z" fill="#363636"/>
<rect x="80.8165" y="156.48" width="21.6" height="21.6" rx="10.8" transform="rotate(-15 80.8165 156.48)" fill="#D2FADE"/>
<path d="M88.8278 165.515L92.6462 158.901L99.2598 162.72" stroke="#36A457" stroke-width="1.35" stroke-linecap="round" stroke-linejoin="round"/>
<path d="M95.4415 169.333L92.6462 158.901" stroke="#36A457" stroke-width="1.35" stroke-linecap="round" stroke-linejoin="round"/>
<path d="M124.253 167.928L123.329 164.48L114.085 166.957L113.211 163.697L116.098 147.752L120.082 146.684L117.196 162.629L122.455 161.22L120.999 155.787L124.535 154.839L125.991 160.273L127.947 159.749L128.82 163.009L126.864 163.533L127.788 166.981L124.253 167.928ZM133.232 165.522L132.273 161.944L135.852 160.985L136.811 164.563L133.232 165.522ZM147.757 162.096C146.694 162.381 145.646 162.429 144.612 162.24C143.575 162.042 142.62 161.646 141.746 161.051C140.882 160.455 140.168 159.683 139.604 158.737L142.725 156.938C143.01 157.462 143.386 157.879 143.852 158.189C144.328 158.496 144.837 158.696 145.38 158.789C145.932 158.879 146.469 158.854 146.99 158.715C147.666 158.533 148.241 158.204 148.713 157.725C149.185 157.246 149.512 156.688 149.692 156.049C149.871 155.401 149.869 154.739 149.688 154.063C149.507 153.387 149.174 152.819 148.688 152.359C148.209 151.886 147.647 151.566 147.002 151.397C146.353 151.219 145.696 151.219 145.03 151.398C144.228 151.612 143.6 151.936 143.147 152.368C142.703 152.798 142.385 153.214 142.193 153.618L138.952 153.461L136.631 142.25L147.961 139.214L148.839 142.488L139.377 145.023L140.351 143.442L141.945 151.246L141.098 150.634C141.507 149.997 142.037 149.461 142.687 149.028C143.337 148.595 143.995 148.29 144.661 148.111C145.965 147.762 147.2 147.752 148.365 148.081C149.537 148.399 150.545 148.993 151.39 149.864C152.243 150.733 152.845 151.819 153.194 153.123C153.544 154.427 153.523 155.701 153.131 156.945C152.737 158.179 152.069 159.259 151.126 160.184C150.194 161.107 149.07 161.744 147.757 162.096ZM167.097 156.448L166.173 153L156.929 155.477L156.055 152.217L158.942 136.271L162.926 135.204L160.04 151.149L165.299 149.74L163.844 144.307L167.379 143.359L168.835 148.793L170.791 148.269L171.664 151.529L169.708 152.053L170.632 155.501L167.097 156.448ZM183.684 152.47C182.206 152.866 180.818 152.901 179.52 152.576C178.219 152.241 177.098 151.594 176.158 150.635C175.227 149.673 174.564 148.453 174.168 146.975L172.367 140.253C171.971 138.775 171.935 137.387 172.26 136.088C172.595 134.787 173.243 133.671 174.205 132.741C175.164 131.8 176.383 131.132 177.861 130.736C179.339 130.34 180.723 130.311 182.015 130.648C183.313 130.973 184.432 131.615 185.373 132.575C186.313 133.534 186.981 134.753 187.377 136.231L189.179 142.953C189.575 144.431 189.605 145.821 189.27 147.122C188.936 148.423 188.289 149.543 187.329 150.484C186.377 151.412 185.162 152.074 183.684 152.47ZM182.795 149.152C183.529 148.955 184.149 148.603 184.655 148.094C185.158 147.576 185.505 146.976 185.694 146.294C185.882 145.602 185.877 144.889 185.68 144.155L183.743 136.925C183.544 136.181 183.191 135.561 182.686 135.065C182.177 134.559 181.577 134.213 180.885 134.026C180.191 133.829 179.476 133.829 178.742 134.025C178.008 134.222 177.389 134.579 176.886 135.097C176.381 135.605 176.034 136.205 175.847 136.897C175.657 137.58 175.662 138.293 175.861 139.037L177.798 146.267C177.995 147.001 178.347 147.621 178.856 148.126C179.361 148.622 179.961 148.969 180.656 149.166C181.348 149.353 182.061 149.348 182.795 149.152Z" fill="black"/>
<path d="M228.514 93.4043L225.346 81.5813L230.124 80.301C230.239 80.2702 230.383 80.2375 230.556 80.203C230.727 80.163 230.893 80.1361 231.053 80.1224C231.738 80.0504 232.346 80.1282 232.876 80.3557C233.412 80.5817 233.859 80.9282 234.219 81.3949C234.579 81.8617 234.844 82.4126 235.014 83.0476C235.185 83.688 235.232 84.3002 235.154 84.8844C235.076 85.4685 234.861 85.9924 234.51 86.456C234.165 86.9182 233.678 87.2892 233.049 87.5692C232.901 87.6322 232.741 87.6926 232.569 87.7505C232.403 87.8069 232.264 87.8498 232.155 87.8791L229.092 88.6997L230.23 92.9445L228.514 93.4043ZM228.657 87.0741L231.654 86.2711C231.763 86.2417 231.882 86.204 232.011 86.1579C232.144 86.1102 232.268 86.0566 232.381 85.997C232.709 85.821 232.951 85.595 233.106 85.3188C233.259 85.0372 233.343 84.7389 233.359 84.4238C233.374 84.1088 233.343 83.8062 233.265 83.5161C233.187 83.226 233.064 82.9511 232.894 82.6915C232.724 82.4263 232.502 82.2128 232.23 82.0511C231.956 81.8839 231.634 81.8061 231.261 81.8179C231.132 81.8173 230.998 81.8299 230.858 81.8556C230.723 81.8799 230.602 81.9067 230.492 81.936L227.495 82.739L228.657 87.0741ZM245.032 88.9781L243.864 84.6184C243.772 84.2736 243.647 83.9286 243.49 83.5835C243.337 83.2314 243.137 82.9214 242.889 82.6534C242.647 82.384 242.352 82.193 242.005 82.0807C241.664 81.9668 241.258 81.973 240.787 82.0991C240.48 82.1812 240.204 82.311 239.958 82.4883C239.711 82.6601 239.513 82.8861 239.366 83.1663C239.223 83.445 239.141 83.7838 239.119 84.1828C239.102 84.5803 239.164 85.0418 239.305 85.5673L238.13 85.451C237.914 84.6464 237.875 83.8972 238.012 83.2035C238.147 82.5043 238.45 81.9068 238.922 81.4109C239.393 80.915 240.028 80.56 240.827 80.3458C241.44 80.1816 241.981 80.1422 242.45 80.2278C242.919 80.3134 243.325 80.4832 243.669 80.7372C244.017 80.9843 244.31 81.2783 244.548 81.6193C244.786 81.9603 244.978 82.3049 245.124 82.6529C245.27 83.001 245.38 83.3119 245.453 83.5855L246.773 88.5118L245.032 88.9781ZM238.801 90.6479L235.633 78.825L237.168 78.4136L238.877 84.793L239.083 84.738L240.541 90.1815L238.801 90.6479ZM251.166 91.5585L251.63 86.427L252.025 87.7998L245.608 79.3201L247.398 78.8405L252.257 85.4144L251.731 85.5552L252.521 77.4678L254.262 77.0014L252.8 91.1207L251.166 91.5585ZM261.378 84.8534C260.3 85.1424 259.358 85.1397 258.551 84.8453C257.745 84.551 257.149 83.9919 256.764 83.1682L258.449 82.4265C258.682 82.8569 259.031 83.1534 259.497 83.316C259.967 83.4717 260.497 83.4703 261.089 83.3119C261.625 83.1682 262.014 82.9465 262.257 82.6469C262.505 82.3459 262.577 82.0037 262.474 81.6206C262.414 81.3962 262.311 81.2302 262.165 81.1227C262.023 81.0083 261.765 80.9336 261.392 80.8986C261.019 80.8636 260.46 80.8462 259.715 80.8464C258.901 80.8532 258.24 80.8045 257.731 80.7004C257.226 80.5893 256.838 80.4089 256.565 80.1592C256.297 79.9025 256.105 79.558 255.989 79.1256C255.846 78.5892 255.862 78.083 256.04 77.6072C256.218 77.1314 256.534 76.715 256.99 76.3582C257.451 76 258.03 75.7277 258.725 75.5414C259.404 75.3596 260.037 75.3042 260.625 75.3754C261.213 75.4467 261.724 75.6353 262.158 75.9414C262.591 76.242 262.91 76.6463 263.117 77.1541L261.446 77.9451C261.271 77.5343 260.981 77.2512 260.576 77.0959C260.17 76.9405 259.694 76.9244 259.146 77.0477C258.62 77.1652 258.222 77.3657 257.952 77.6493C257.68 77.9274 257.59 78.2361 257.681 78.5755C257.734 78.7725 257.839 78.9233 257.996 79.0279C258.158 79.131 258.434 79.1978 258.824 79.2284C259.213 79.259 259.779 79.2687 260.521 79.2576C261.317 79.2497 261.965 79.3048 262.466 79.4228C262.966 79.5354 263.352 79.7282 263.625 80.0013C263.901 80.2674 264.1 80.6276 264.222 81.0819C264.457 81.9577 264.321 82.7304 263.814 83.4001C263.312 84.0683 262.5 84.5528 261.378 84.8534ZM264.126 72.8006L263.68 71.1338L265.396 70.6741L265.842 72.3408L264.126 72.8006ZM266.892 83.121L264.516 74.2538L266.232 73.794L268.608 82.6612L266.892 83.121ZM274.932 81.2305C274.024 81.4739 273.198 81.4782 272.454 81.2433C271.711 81.0084 271.075 80.5834 270.546 79.9682C270.023 79.3516 269.639 78.5952 269.393 77.699C269.153 76.7834 269.112 75.9291 269.269 75.1361C269.425 74.3376 269.769 73.6528 270.302 73.0816C270.836 72.5104 271.551 72.1046 272.449 71.8641C273.418 71.6045 274.309 71.6238 275.122 71.9222C275.941 72.2191 276.572 72.7569 277.015 73.5357L275.439 74.4859C275.136 74.0333 274.754 73.7222 274.292 73.5526C273.834 73.3762 273.356 73.3546 272.858 73.4881C272.294 73.6392 271.867 73.8972 271.578 74.2622C271.287 74.6217 271.116 75.0549 271.064 75.5616C271.012 76.0683 271.062 76.6179 271.215 77.2106C271.466 78.1232 271.872 78.8064 272.433 79.2602C273 79.7125 273.689 79.8301 274.499 79.613C275.052 79.4649 275.464 79.2195 275.736 78.8768C276.012 78.5271 276.176 78.09 276.229 77.5654L278.08 77.5095C278.022 78.4521 277.721 79.2454 277.178 79.8896C276.633 80.5283 275.885 80.9753 274.932 81.2305ZM282.864 79.1052C282.207 79.2812 281.625 79.3082 281.117 79.1862C280.607 79.0586 280.184 78.8259 279.847 78.4879C279.514 78.143 279.283 77.7297 279.154 77.248C279.034 76.7992 279.008 76.3838 279.076 76.0019C279.143 75.6201 279.302 75.2696 279.551 74.9507C279.798 74.6262 280.129 74.3293 280.544 74.0597C280.907 73.8392 281.326 73.6184 281.801 73.3974C282.275 73.1763 282.776 72.9541 283.303 72.7309C283.835 72.5061 284.362 72.2828 284.884 72.061L284.352 72.573C284.177 71.8749 283.891 71.4 283.495 71.1483C283.103 70.8896 282.538 70.8592 281.799 71.0572C281.333 71.1819 280.936 71.4057 280.606 71.7288C280.274 72.0464 280.099 72.4748 280.079 73.014L278.346 72.9503C278.361 72.1308 278.615 71.4145 279.108 70.8014C279.606 70.1869 280.367 69.7425 281.39 69.4682C282.184 69.2555 282.91 69.2076 283.569 69.3243C284.232 69.4341 284.779 69.7452 285.21 70.2576C285.43 70.5095 285.6 70.7926 285.719 71.1067C285.838 71.4209 285.948 71.764 286.048 72.1362L287.511 77.5961L285.992 78.0031L285.448 75.9752L285.814 76.1587C285.629 76.9357 285.297 77.5674 284.817 78.0538C284.342 78.5333 283.69 78.8838 282.864 79.1052ZM282.791 77.6198C283.279 77.4893 283.675 77.2923 283.979 77.0287C284.283 76.7597 284.505 76.4625 284.647 76.1371C284.789 75.8117 284.853 75.4951 284.841 75.1874C284.864 74.8998 284.837 74.5903 284.76 74.2589C284.688 73.9261 284.626 73.6612 284.573 73.4641L285.186 73.5198C284.667 73.7471 284.194 73.953 283.768 74.1375C283.342 74.3219 282.957 74.4954 282.614 74.6579C282.274 74.8134 281.977 74.9724 281.721 75.1348C281.507 75.2799 281.323 75.4349 281.168 75.5997C281.018 75.7631 280.91 75.9415 280.845 76.1351C280.785 76.3271 280.786 76.5409 280.849 76.7762C280.911 77.0061 281.026 77.2042 281.193 77.3704C281.36 77.5312 281.576 77.6375 281.842 77.6894C282.108 77.7413 282.425 77.7181 282.791 77.6198ZM289.807 76.9809L286.573 64.9116L288.289 64.4518L291.523 76.5211L289.807 76.9809ZM297.44 74.9356L294.272 63.1126L295.988 62.6529L299.156 74.4758L297.44 74.9356ZM306.695 72.4556C306.166 72.7146 305.632 72.9078 305.091 73.0351C304.55 73.1625 304.043 73.1868 303.57 73.1081C303.098 73.0295 302.699 72.8135 302.376 72.4602C302.086 72.1448 301.882 71.8005 301.765 71.4272C301.651 71.047 301.53 70.616 301.401 70.1343L299.3 62.2934L301.024 61.8314L303.103 69.5902C303.198 69.946 303.284 70.2546 303.36 70.5158C303.441 70.7756 303.558 70.9819 303.71 71.1347C303.998 71.4212 304.362 71.5319 304.803 71.4668C305.247 71.3947 305.748 71.2399 306.306 71.0023L306.695 72.4556ZM298.63 66.5913L298.26 65.2119L304.319 63.5884L304.689 64.9677L298.63 66.5913ZM312.163 71.2546C311.282 71.4907 310.456 71.5067 309.685 71.3024C308.919 71.0913 308.257 70.6907 307.7 70.1008C307.147 69.5039 306.748 68.7484 306.503 67.8343C306.244 66.8655 306.199 65.9769 306.37 65.1686C306.546 64.3587 306.907 63.6722 307.455 63.1091C308.002 62.5459 308.708 62.1485 309.573 61.9168C310.476 61.6748 311.301 61.6794 312.049 61.9308C312.796 62.1766 313.428 62.6437 313.947 63.3318C314.471 64.0185 314.843 64.9016 315.062 65.9811L313.346 66.4409L313.179 65.8169C312.892 64.7908 312.491 64.0828 311.976 63.6928C311.466 63.3014 310.823 63.2098 310.045 63.4181C309.186 63.6483 308.613 64.0923 308.326 64.7501C308.038 65.4078 308.032 66.2485 308.306 67.2721C308.567 68.2464 308.986 68.9438 309.562 69.3643C310.137 69.7794 310.832 69.8777 311.647 69.6591C312.184 69.5154 312.614 69.2711 312.938 68.9261C313.266 68.5742 313.479 68.1417 313.576 67.6288L315.402 67.7114C315.27 68.5975 314.912 69.3534 314.329 69.979C313.744 70.5991 313.022 71.0243 312.163 71.2546ZM307.878 67.9061L307.519 66.5678L313.849 64.8716L314.208 66.2099L307.878 67.9061ZM328.346 66.6544L326.873 61.1266C326.702 60.4862 326.404 60.0321 325.98 59.7643C325.555 59.4911 325.074 59.4263 324.538 59.5701C324.209 59.658 323.929 59.8153 323.696 60.0419C323.468 60.2616 323.309 60.5447 323.22 60.8912C323.135 61.2308 323.153 61.625 323.273 62.0738L322.331 61.8773C322.153 61.2562 322.138 60.6736 322.285 60.1296C322.438 59.5841 322.719 59.1189 323.126 58.734C323.532 58.3437 324.03 58.0693 324.621 57.9109C325.579 57.6543 326.398 57.7429 327.077 58.1768C327.757 58.6108 328.224 59.3039 328.479 60.2563L330.062 66.1946L328.346 66.6544ZM317.713 69.5034L315.337 60.6362L316.864 60.227L317.551 62.7886L317.748 62.7358L319.437 69.0414L317.713 69.5034ZM323.034 68.0778L321.57 62.5828C321.397 61.937 321.097 61.4747 320.67 61.1959C320.249 60.9157 319.765 60.849 319.218 60.9956C318.676 61.1408 318.288 61.4443 318.053 61.9059C317.825 62.3661 317.791 62.8973 317.952 63.4994L316.991 63.1939C316.835 62.6137 316.836 62.059 316.994 61.5299C317.151 61.0008 317.433 60.5411 317.838 60.1508C318.244 59.7605 318.748 59.4846 319.35 59.3233C319.98 59.1546 320.552 59.145 321.067 59.2944C321.581 59.4383 322.017 59.7176 322.374 60.1322C322.737 60.5454 323.003 61.0667 323.172 61.6961L324.75 67.618L323.034 68.0778Z" fill="#363636"/>
<rect x="233.24" y="115.639" width="21.6" height="21.6" rx="10.8" transform="rotate(-15 233.24 115.639)" fill="#FAD2D2"/>
<path d="M241.251 124.673L247.864 128.492L251.683 121.878" stroke="#A43636" stroke-width="1.35" stroke-linecap="round" stroke-linejoin="round"/>
<path d="M245.069 118.06L247.865 128.492" stroke="#A43636" stroke-width="1.35" stroke-linecap="round" stroke-linejoin="round"/>
<path d="M269.165 129.099L271.646 109.613L262.532 112.055L261.647 108.752L274.499 105.308L275.384 108.612L272.932 128.09L269.165 129.099ZM283.777 129.144L283.576 127.583C284.031 127.502 284.363 127.331 284.572 127.067C284.783 126.814 284.886 126.502 284.88 126.131C284.886 125.767 284.806 125.374 284.642 124.952L282.787 125.449L281.789 121.726L285.368 120.767L286.405 124.635C286.744 125.901 286.7 126.937 286.275 127.745C285.85 128.552 285.017 129.019 283.777 129.144ZM298.818 121.62C297.437 121.99 296.135 122.038 294.913 121.765C293.691 121.492 292.642 120.94 291.767 120.108C290.892 119.276 290.282 118.218 289.938 116.933C289.63 115.784 289.61 114.645 289.877 113.518C290.144 112.39 290.711 111.395 291.577 110.531L291.803 111.666C290.838 111.272 290.028 110.739 289.371 110.066C288.722 109.381 288.264 108.541 287.997 107.546C287.676 106.348 287.678 105.235 288.003 104.205C288.337 103.174 288.932 102.284 289.788 101.537C290.641 100.781 291.71 100.23 292.995 99.8862C294.28 99.542 295.481 99.4842 296.598 99.7128C297.722 99.9292 298.682 100.402 299.478 101.131C300.283 101.857 300.847 102.819 301.167 104.017C301.434 105.012 301.461 105.962 301.248 106.868C301.045 107.771 300.604 108.656 299.925 109.521L299.607 108.395C300.765 108.695 301.742 109.272 302.54 110.125C303.345 110.965 303.901 111.96 304.209 113.109C304.554 114.394 304.55 115.617 304.198 116.777C303.856 117.935 303.22 118.939 302.288 119.789C301.366 120.637 300.209 121.247 298.818 121.62ZM297.937 118.331C298.961 118.056 299.717 117.554 300.204 116.822C300.701 116.089 300.805 115.181 300.515 114.099C300.225 113.017 299.686 112.282 298.899 111.892C298.108 111.493 297.196 111.432 296.163 111.709C295.139 111.983 294.39 112.49 293.914 113.228C293.437 113.956 293.343 114.861 293.633 115.943C293.922 117.025 294.456 117.762 295.234 118.154C296.012 118.546 296.913 118.605 297.937 118.331ZM295.274 108.391C296.134 108.161 296.772 107.762 297.189 107.195C297.614 106.615 297.708 105.886 297.473 105.007C297.237 104.128 296.792 103.548 296.137 103.268C295.49 102.976 294.736 102.945 293.876 103.175C293.026 103.403 292.389 103.807 291.965 104.386C291.547 104.954 291.456 105.677 291.692 106.556C291.927 107.435 292.369 108.02 293.017 108.313C293.671 108.593 294.424 108.619 295.274 108.391ZM315.695 117.051C314.652 117.33 313.612 117.392 312.576 117.234C311.54 117.077 310.58 116.718 309.695 116.158C308.819 115.596 308.096 114.848 307.525 113.914L310.656 112.096C311.12 112.862 311.732 113.387 312.491 113.67C313.257 113.941 314.025 113.968 314.795 113.751C315.481 113.567 316.052 113.244 316.507 112.78C316.963 112.316 317.273 111.773 317.437 111.149C317.599 110.516 317.589 109.861 317.408 109.185C317.131 108.151 316.566 107.376 315.713 106.859C314.86 106.342 313.907 106.225 312.854 106.507C312.536 106.592 312.233 106.72 311.947 106.89C311.671 107.057 311.414 107.255 311.175 107.485L308.844 105.159L314.249 97.2815L314.779 98.0403L304.854 100.7L303.972 97.4107L316.766 93.9826L317.651 97.2861L313.467 104.215L313.162 103.194C314.451 102.942 315.623 103.006 316.677 103.386C317.741 103.764 318.64 104.377 319.375 105.226C320.119 106.072 320.647 107.074 320.957 108.233C321.309 109.547 321.301 110.812 320.934 112.029C320.576 113.243 319.937 114.299 319.019 115.197C318.107 116.084 316.999 116.701 315.695 117.051ZM334.08 112.171C332.602 112.567 331.214 112.603 329.916 112.278C328.615 111.943 327.494 111.296 326.554 110.337C325.623 109.375 324.96 108.155 324.564 106.677L322.763 99.9541C322.367 98.4762 322.331 97.0881 322.656 95.7897C322.991 94.4888 323.639 93.373 324.601 92.4423C325.56 91.502 326.779 90.8338 328.257 90.4378C329.735 90.0418 331.119 90.0125 332.411 90.3497C333.709 90.6748 334.828 91.317 335.769 92.2763C336.709 93.2356 337.377 94.4542 337.773 95.932L339.574 102.655C339.97 104.133 340.001 105.522 339.666 106.823C339.332 108.124 338.685 109.245 337.725 110.185C336.773 111.113 335.558 111.775 334.08 112.171ZM333.191 108.853C333.925 108.656 334.545 108.304 335.051 107.796C335.554 107.278 335.901 106.678 336.09 105.995C336.278 105.303 336.273 104.59 336.076 103.856L334.139 96.6263C333.94 95.8825 333.587 95.2626 333.082 94.7666C332.573 94.2609 331.973 93.9144 331.281 93.7271C330.587 93.5302 329.872 93.5301 329.138 93.7268C328.404 93.9235 327.785 94.2808 327.282 94.7986C326.777 95.3068 326.43 95.907 326.243 96.599C326.053 97.2814 326.058 97.9945 326.257 98.7382L328.194 105.968C328.391 106.702 328.743 107.322 329.252 107.828C329.757 108.324 330.357 108.67 331.052 108.867C331.744 109.055 332.457 109.05 333.191 108.853Z" fill="black"/>
</g>
<defs>
<filter id="filter0_d_13_51" x="-6.15723" y="-5.35471" width="432.315" height="252.709" filterUnits="userSpaceOnUse" color-interpolation-filters="sRGB">
<feFlood flood-opacity="0" result="BackgroundImageFix"/>
<feColorMatrix in="SourceAlpha" type="matrix" values="0 0 0 0 0 0 0 0 0 0 0 0 0 0 0 0 0 0 127 0" result="hardAlpha"/>
<feOffset dy="4"/>
<feGaussianBlur stdDeviation="10"/>
<feComposite in2="hardAlpha" operator="out"/>
<feColorMatrix type="matrix" values="0 0 0 0 0.504808 0 0 0 0 0.504808 0 0 0 0 0.504808 0 0 0 0.25 0"/>
<feBlend mode="normal" in2="BackgroundImageFix" result="effect1_dropShadow_13_51"/>
<feBlend mode="normal" in="SourceGraphic" in2="effect1_dropShadow_13_51" result="shape"/>
</filter>
</defs>
</svg>
